<?xml version="1.0" encoding="utf-8"?>
<!-- Generator: Adobe Illustrator 22.1.0, SVG Export Plug-In . SVG Version: 6.00 Build 0)  -->
<svg version="1.1" id="Layer_1" xmlns="http://www.w3.org/2000/svg" xmlns:xlink="http://www.w3.org/1999/xlink" x="0px" y="0px"
	 viewBox="0 0 512 512" style="enable-background:new 0 0 512 512;" xml:space="preserve">
<g>
	<title>cc-paypal</title>
	<g>
		<path d="M176.6,282.7c0,9.5-7.6,16.8-17.2,16.8c-7.2,0-12.5-4.1-12.5-11.7c0-9.5,7.4-17.2,17-17.2
			C171.1,270.6,176.6,275.1,176.6,282.7L176.6,282.7z M93.9,244.8h-3.7c-1.2,0-2.3,0.8-2.5,2.1l-3.4,20.9l6.4-0.2
			c8.6,0,15.2-1.2,16.8-11.1C109.4,246,102.7,244.8,93.9,244.8z M315.8,244.8h-3.5c-1.4,0-2.3,0.8-2.5,2.1l-3.3,20.9l6.2-0.2
			c10.2,0,17.2-2.3,17.2-14.1C329.8,245.2,322.4,244.8,315.8,244.8L315.8,244.8z M481,143.5v275c0,20.7-16.8,37.5-37.5,37.5h-375
			C47.8,456,31,439.2,31,418.5v-275c0-20.7,16.8-37.5,37.5-37.5h375C464.2,106,481,122.8,481,143.5z M131.2,249.3
			c0-16.4-12.7-21.9-27.1-21.9H72.9c-2,0-3.9,1.6-4.1,3.7L56,310.8c-0.2,1.6,0.9,3.1,2.5,3.1h14.8c2.1,0,4.1-2.3,4.3-4.5l3.5-20.8
			c0.8-5.6,10.3-3.7,14.1-3.7C117.6,285,131.3,271.8,131.2,249.3L131.2,249.3z M197,256.2h-14.8c-3,0-3.1,4.3-3.3,6.4
			c-4.5-6.6-11.1-7.8-18.5-7.8c-19.1,0-33.7,16.8-33.7,35.3c0,15.2,9.5,25.2,24.8,25.2c7,0,15.8-3.8,20.7-9.3
			c-0.4,1.2-0.8,3.7-0.8,4.9c0,1.8,0.8,3.1,2.5,3.1h13.4c2.1,0,3.9-2.3,4.3-4.5l8-50.2C199.8,257.7,198.6,256.2,197,256.2z
			 M228.7,332.6l49.8-72.3c0.4-0.4,0.4-0.8,0.4-1.3c0-1.3-1.2-2.7-2.5-2.7h-15c-1.3,0-2.7,0.8-3.5,2l-20.7,30.5l-8.6-29.3
			c-0.6-1.7-2.3-3.1-4.3-3.1h-14.6c-1.3,0-2.5,1.4-2.5,2.7c0,0.9,15.2,44.4,16.6,48.5c-2.1,3-16,22.3-16,24.7c0,1.4,1.2,2.5,2.5,2.5
			h15C226.6,334.6,227.9,333.8,228.7,332.6L228.7,332.6z M353.1,249.3c0-16.4-12.7-21.9-27.1-21.9h-31c-2.1,0-4.1,1.6-4.3,3.7
			L278,310.8c-0.2,1.6,1,3.1,2.5,3.1h16c1.6,0,2.7-1.2,3.1-2.5l3.5-22.7c0.8-5.6,10.3-3.7,14.1-3.7
			C339.4,285,353.1,271.8,353.1,249.3L353.1,249.3z M418.9,256.2H404c-3,0-3.1,4.3-3.4,6.4c-4.3-6.6-10.9-7.8-18.5-7.8
			c-19.1,0-33.7,16.8-33.7,35.3c0,15.2,9.5,25.2,24.8,25.2c7.3,0,16-3.8,20.7-9.3c-0.2,1.2-0.8,3.7-0.8,4.9c0,1.8,0.8,3.1,2.5,3.1
			h13.5c2.1,0,3.9-2.3,4.3-4.5l8-50.2C421.6,257.7,420.4,256.2,418.9,256.2L418.9,256.2z M456,230.1c0-1.6-1.2-2.7-2.5-2.7H439
			c-1.2,0-2.3,0.9-2.5,2.1l-12.7,81.3l-0.2,0.4c0,1.4,1.2,2.7,2.7,2.7h12.9c2,0,3.9-2.3,4.1-4.5l12.7-79.1V230.1z M385.7,270.6
			c-9.5,0-17,7.6-17,17.2c0,7.6,5.5,11.7,12.7,11.7c9.4,0,17-7.2,17-16.8C398.4,275.1,393,270.6,385.7,270.6z"/>
	</g>
</g>
</svg>
