<svg width="405" height="107" viewBox="0 0 405 107" fill="none" xmlns="http://www.w3.org/2000/svg">
<path d="M51.7457 0C64.9557 0 77.1448 7.07194 75.4771 24.6969C73.4557 45.6434 62.0852 57.2338 44.1452 57.2836H28.4691C26.2152 57.2836 25.1237 59.099 24.5375 62.8195L21.5054 81.8409C21.0505 84.7136 19.5547 86.13 17.3513 86.13H2.76685C0.442221 86.13 -0.366341 84.6637 0.14912 81.3821L12.1866 5.14685C12.783 1.39644 14.2081 0 16.8056 0H51.7154H51.7457ZM27.9941 40.8157H39.8699C47.2986 40.5364 52.2308 35.4594 52.7261 26.3028C53.0293 20.6472 49.1583 16.5976 43.0031 16.6275L31.8247 16.6774L27.9941 40.8157ZM115.127 80.2949C116.461 79.0979 117.816 78.4795 117.624 79.9557L117.149 83.4867C116.906 85.332 117.644 86.3095 119.382 86.3095H132.339C134.523 86.3095 135.584 85.4417 136.119 82.1102L144.104 32.6566C144.508 30.1729 143.892 28.956 141.982 28.956H127.731C126.447 28.956 125.82 29.6642 125.487 31.5993L124.961 34.6415C124.688 36.2274 123.951 36.5067 123.263 34.9108C120.848 29.2652 114.682 26.7317 106.081 26.9312C86.0996 27.3402 72.6269 42.3119 71.1816 61.5029C70.0698 76.345 80.8439 88.0052 95.0545 88.0052C105.364 88.0052 109.973 85.0128 115.168 80.3248L115.127 80.2949ZM104.272 72.6843C95.671 72.6843 89.6775 65.9116 90.9207 57.6128C92.1639 49.314 100.209 42.5413 108.81 42.5413C117.411 42.5413 123.405 49.314 122.162 57.6128C120.918 65.9116 112.883 72.6843 104.272 72.6843ZM169.463 28.7964H156.324C153.615 28.7964 152.513 30.7913 153.372 33.2451L169.685 80.3846L153.686 102.817C152.341 104.693 153.382 106.398 155.272 106.398H170.039C170.899 106.496 171.77 106.348 172.548 105.972C173.326 105.595 173.977 105.006 174.425 104.274L224.597 33.255C226.143 31.0706 225.415 28.7765 222.879 28.7765H208.901C206.505 28.7765 205.545 29.7141 204.17 31.6791L183.249 61.6026L173.9 31.6092C173.354 29.7939 171.989 28.7964 169.473 28.7964H169.463Z" fill="black"/>
<path d="M276.736 0.0199685C289.946 0.0199685 302.135 7.09191 300.467 24.7169C298.446 45.6634 287.075 57.2537 269.135 57.3036H253.469C251.215 57.3036 250.124 59.119 249.537 62.8395L246.505 81.8609C246.051 84.7335 244.555 86.1499 242.351 86.1499H227.767C225.442 86.1499 224.634 84.6837 225.149 81.4021L237.207 5.14685C237.803 1.39644 239.228 0 241.826 0H276.736V0.0199685ZM252.984 40.8357H264.86C272.288 40.5564 277.221 35.4794 277.716 26.3228C278.019 20.6672 274.148 16.6175 267.993 16.6475L256.815 16.6974L252.984 40.8357V40.8357ZM340.117 80.3148C341.451 79.1179 342.805 78.4995 342.613 79.9757L342.138 83.5067C341.896 85.3519 342.634 86.3295 344.372 86.3295H357.329C359.512 86.3295 360.574 85.4617 361.109 82.1302L369.094 32.6765C369.498 30.1929 368.882 28.976 366.972 28.976H352.741C351.457 28.976 350.831 29.6842 350.497 31.6192L349.971 34.6614C349.699 36.2474 348.961 36.5267 348.273 34.9308C345.858 29.2852 339.693 26.7517 331.091 26.9512C311.11 27.3601 297.637 42.3319 296.192 61.5228C295.08 76.3649 305.854 88.0251 320.065 88.0251C330.374 88.0251 334.983 85.0328 340.178 80.3448L340.117 80.3148ZM329.272 72.7043C320.671 72.7043 314.678 65.9316 315.921 57.6328C317.164 49.334 325.209 42.5613 333.81 42.5613C342.411 42.5613 348.405 49.334 347.162 57.6328C345.918 65.9316 337.873 72.7043 329.272 72.7043ZM389.035 86.4092H374.077C373.817 86.4207 373.557 86.3754 373.317 86.2764C373.076 86.1774 372.861 86.0273 372.686 85.8367C372.512 85.6462 372.382 85.4199 372.306 85.174C372.23 84.9281 372.21 84.6687 372.247 84.4143L385.387 2.26423C385.512 1.70358 385.826 1.2013 386.277 0.839104C386.729 0.476905 387.291 0.276091 387.873 0.269331H402.831C403.092 0.257846 403.351 0.303202 403.591 0.402171C403.832 0.50114 404.047 0.65127 404.222 0.841843C404.397 1.03242 404.527 1.25873 404.602 1.50461C404.678 1.75049 404.698 2.00988 404.661 2.26423L391.522 84.4143C391.4 84.9787 391.088 85.4855 390.636 85.8517C390.184 86.2178 389.62 86.4214 389.035 86.4292V86.4092Z" fill="black"/>
</svg>
